<?xml version="1.0" encoding="UTF-8" standalone="no"?>
<!-- Created with Inkscape (http://www.inkscape.org/) -->

<svg
   xmlns:dc="http://purl.org/dc/elements/1.1/"
   xmlns:cc="http://creativecommons.org/ns#"
   xmlns:rdf="http://www.w3.org/1999/02/22-rdf-syntax-ns#"
   xmlns:svg="http://www.w3.org/2000/svg"
   xmlns="http://www.w3.org/2000/svg"
   xmlns:sodipodi="http://sodipodi.sourceforge.net/DTD/sodipodi-0.dtd"
   xmlns:inkscape="http://www.inkscape.org/namespaces/inkscape"
   width="210mm"
   height="297mm"
   viewBox="0 0 744.09448819 1052.3622047"
   id="svg4159"
   version="1.1"
   inkscape:version="0.91 r13725"
   sodipodi:docname="mug.svg">
  <defs
     id="defs4161" />
  <sodipodi:namedview
     id="base"
     pagecolor="#ffffff"
     bordercolor="#666666"
     borderopacity="1.0"
     inkscape:pageopacity="0.0"
     inkscape:pageshadow="2"
     inkscape:zoom="0.5"
     inkscape:cx="271.82698"
     inkscape:cy="492.42248"
     inkscape:document-units="px"
     inkscape:current-layer="layer1"
     showgrid="false"
     inkscape:window-width="1440"
     inkscape:window-height="877"
     inkscape:window-x="1432"
     inkscape:window-y="-8"
     inkscape:window-maximized="1" />
  <metadata
     id="metadata4164">
    <rdf:RDF>
      <cc:Work
         rdf:about="">
        <dc:format>image/svg+xml</dc:format>
        <dc:type
           rdf:resource="http://purl.org/dc/dcmitype/StillImage" />
        <dc:title></dc:title>
      </cc:Work>
    </rdf:RDF>
  </metadata>
  <g
     inkscape:label="Layer 1"
     inkscape:groupmode="layer"
     id="layer1">
    <g
       id="g4194">
      <path
         inkscape:connector-curvature="0"
         id="path4169"
         d="m 587.74102,354.66976 a 140.41895,191.7024 0 0 0 -95.41263,51.28303 120.27189,164.19727 0 0 1 58.17,-20.69466 120.27189,164.19727 0 0 1 120.27254,164.19809 120.27189,164.19727 0 0 1 -120.27254,164.19642 120.27189,164.19727 0 0 1 -44.84293,-11.9679 140.41895,191.7024 0 0 0 82.08556,36.38935 A 140.41895,191.7024 0 0 0 728.16016,546.37193 140.41895,191.7024 0 0 0 587.74102,354.66976 Z"
         style="opacity:1;fill:#6c5353;fill-opacity:1;stroke:none" />
      <ellipse
         ry="65.93586"
         rx="259.02051"
         cy="844.66748"
         cx="304.54114"
         id="path4171-2"
         style="opacity:1;fill:#6c5353;fill-opacity:0.98327088;stroke:none" />
      <rect
         y="235.00778"
         x="45.52063"
         height="610.51721"
         width="518.04102"
         id="rect4167"
         style="opacity:1;fill:#6c5353;fill-opacity:1;stroke:none" />
      <ellipse
         ry="65.93586"
         rx="259.02051"
         cy="235.42679"
         cx="304.54114"
         id="path4171"
         style="opacity:1;fill:#916f6f;fill-opacity:1;stroke:none" />
      <ellipse
         style="opacity:1;fill:#483737;fill-opacity:1;stroke:none"
         id="ellipse4192"
         cx="303.60995"
         cy="234.42679"
         rx="207.95168"
         ry="52.93586" />
    </g>
  </g>
</svg>
