<?xml version="1.0" encoding="UTF-8" standalone="no"?>
<!-- Created with Inkscape (http://www.inkscape.org/) -->

<svg
   xmlns:dc="http://purl.org/dc/elements/1.1/"
   xmlns:cc="http://creativecommons.org/ns#"
   xmlns:rdf="http://www.w3.org/1999/02/22-rdf-syntax-ns#"
   xmlns:svg="http://www.w3.org/2000/svg"
   xmlns="http://www.w3.org/2000/svg"
   xmlns:sodipodi="http://sodipodi.sourceforge.net/DTD/sodipodi-0.dtd"
   xmlns:inkscape="http://www.inkscape.org/namespaces/inkscape"
   width="328.41742mm"
   height="227.92189mm"
   viewBox="0 0 1163.6838 807.59725"
   id="svg4208"
   version="1.1"
   inkscape:version="0.91 r13725"
   sodipodi:docname="simple-french-angelfish.svg"
   inkscape:export-filename="C:\Users\nexoc\Desktop\simple-french-angelfish.png"
   inkscape:export-xdpi="90"
   inkscape:export-ydpi="90">
  <defs
     id="defs4210" />
  <sodipodi:namedview
     id="base"
     pagecolor="#ffffff"
     bordercolor="#666666"
     borderopacity="1.0"
     inkscape:pageopacity="0.0"
     inkscape:pageshadow="2"
     inkscape:zoom="0.49497475"
     inkscape:cx="759.12249"
     inkscape:cy="322.44809"
     inkscape:document-units="px"
     inkscape:current-layer="layer1"
     showgrid="false"
     inkscape:window-width="1440"
     inkscape:window-height="877"
     inkscape:window-x="1432"
     inkscape:window-y="-8"
     inkscape:window-maximized="1"
     fit-margin-top="0"
     fit-margin-left="0"
     fit-margin-right="0"
     fit-margin-bottom="0" />
  <metadata
     id="metadata4213">
    <rdf:RDF>
      <cc:Work
         rdf:about="">
        <dc:format>image/svg+xml</dc:format>
        <dc:type
           rdf:resource="http://purl.org/dc/dcmitype/StillImage" />
        <dc:title></dc:title>
      </cc:Work>
    </rdf:RDF>
  </metadata>
  <g
     inkscape:label="Layer 1"
     inkscape:groupmode="layer"
     id="layer1"
     transform="translate(-821.28049,-82.489118)">
    <path
       style="opacity:1;fill:#483e37;fill-opacity:1;stroke:none"
       d="m 1644.4838,82.491898 c -26.2619,0.0747 -50.5135,1.66652 -71.1055,5.33594 -142.8643,25.457902 -304.7954,63.051402 -426.6172,109.171872 -79.7593,30.19605 -139.3852,61.04054 -203.16958,102.91821 -73.9615,48.55947 -116.2484,123.37948 -121.9398,206.0669 -5.6002,81.3608 52.9795,167.79872 120.378,226.51779 50.3065,43.82815 68.06348,54.72324 136.62588,77.61624 140.2195,46.81933 365.6637,61.19969 533.5176,64.91407 106.124,2.34837 290.2682,-17.69826 323.4118,-22.49438 l -140.7277,-23.47163 c -58.5352,-9.76293 -65.477,-18.93443 -65.477,-78.27814 0,0 9.2912,-89.17377 -16.1624,-146.93429 -12.8787,-29.22489 -54.5483,-82.83251 -54.5483,-107.07617 0,-20.87649 45.8328,-80.3208 58.5889,-111.11678 24.6705,-59.56002 12.1218,-152.9958 12.1218,-152.9958 0,-59.34371 47.7754,-107.11914 107.1191,-107.11914 l 148.4649,0 c -15.7647,-3.39435 -204.6505,-43.441262 -340.4805,-43.054692 z"
       id="path4229"
       inkscape:connector-curvature="0"
       sodipodi:nodetypes="sssssssscssssssscs" />
    <path
       style="opacity:1;fill:#483e37;fill-opacity:1;stroke:none"
       inkscape:transform-center-x="43.436559"
       inkscape:transform-center-y="1.7787853"
       d="M 1866.7619,654.36208 C 1638.7814,555.527 1599.9807,493.22073 1599.9807,493.22073 c 0,0 21.6873,-40.29747 272.9431,-150.46867 49.8793,-21.87119 105.0976,91.97794 104.1083,142.00752 -1.0647,53.84043 -57.4993,192.47995 -110.2702,169.6025 z"
       id="path4235"
       inkscape:connector-curvature="0"
       sodipodi:nodetypes="scsss" />
    <path
       style="opacity:1;fill:#6c5d53;fill-opacity:1;stroke:none"
       d="m 1214.2025,384.30509 c 0,0 -49.5239,128.4774 -88.4279,169.4826 -43.3076,45.6465 -158.20693,90.47248 -158.20693,90.47248 0,0 192.54303,9.64506 250.67543,-48.48732 61.272,-61.272 -4.0406,-211.46776 -4.0406,-211.46776 z"
       id="rect4237"
       inkscape:connector-curvature="0"
       sodipodi:nodetypes="cscsc" />
    <path
       inkscape:connector-curvature="0"
       id="path4242"
       d="m 1014.838,712.84608 c 0,0 96.6615,85.43329 154.4355,113.77142 52.6699,25.83449 176.8962,48.74643 176.8962,48.74643 0,0 -145.2384,39.81013 -221.2434,-11.49702 -53.6871,-36.2415 -110.0883,-151.02083 -110.0883,-151.02083 z"
       style="opacity:1;fill:#6c5d53;fill-opacity:1;stroke:none"
       sodipodi:nodetypes="cscsc" />
    <circle
       style="opacity:1;fill:#6c5d53;fill-opacity:1;stroke:none"
       id="path4245"
       cx="978.83783"
       cy="457.38235"
       r="47.477169" />
    <circle
       r="35.355339"
       cy="465.50418"
       cx="984.95966"
       id="circle4247"
       style="opacity:1;fill:#483e37;fill-opacity:1;stroke:none" />
    <circle
       style="opacity:1;fill:#000000;fill-opacity:1;stroke:none"
       id="circle4249"
       cx="976.87842"
       cy="457.42297"
       r="27.274118" />
  </g>
</svg>
